<svg width="23" height="23" viewBox="0 0 23 23" fill="none" xmlns="http://www.w3.org/2000/svg">
<path d="M5.32352 9.31282C7.54252 9.31282 9.34138 7.51396 9.34138 5.29496C9.34138 3.07595 7.54252 1.2771 5.32352 1.2771C3.10452 1.2771 1.30566 3.07595 1.30566 5.29496C1.30566 7.51396 3.10452 9.31282 5.32352 9.31282Z" fill="#9570F1" stroke="#9570F1" stroke-width="1.5" stroke-linecap="round" stroke-linejoin="round"/>
<path d="M5.29838 21.2158C7.51738 21.2158 9.31624 19.4169 9.31624 17.198C9.31624 14.9789 7.51738 13.1801 5.29838 13.1801C3.07937 13.1801 1.28052 14.9789 1.28052 17.198C1.28052 19.4169 3.07937 21.2158 5.29838 21.2158Z" fill="#9570F1" stroke="#9570F1" stroke-width="1.5" stroke-linecap="round" stroke-linejoin="round"/>
<path d="M17.2267 9.31282C19.4457 9.31282 21.2445 7.51396 21.2445 5.29496C21.2445 3.07595 19.4457 1.2771 17.2267 1.2771C15.0076 1.2771 13.2087 3.07595 13.2087 5.29496C13.2087 7.51396 15.0076 9.31282 17.2267 9.31282Z" fill="#9570F1" stroke="#9570F1" stroke-width="1.5" stroke-linecap="round" stroke-linejoin="round"/>
<path d="M17.0178 21.0358C19.2368 21.0358 21.0357 19.2369 21.0357 17.0179C21.0357 14.7988 19.2368 13 17.0178 13C14.7989 13 13 14.7988 13 17.0179C13 19.2369 14.7989 21.0358 17.0178 21.0358Z" fill="#9570F1" stroke="#9570F1" stroke-width="1.5" stroke-linecap="round" stroke-linejoin="round"/>
</svg>
