<svg width="40" height="40" viewBox="0 0 40 40" fill="none" xmlns="http://www.w3.org/2000/svg">
<circle cx="20" cy="20" r="19.75" fill="#F4F4F4" stroke="black" stroke-width="0.5"/>
<path d="M21.0006 29.0037H15.9985C13.2359 29.0037 10.9964 26.7642 10.9964 24.0016V15.9983C10.9964 13.2357 13.2359 10.9962 15.9985 10.9962H24.0018C26.7644 10.9962 29.0039 13.2357 29.0039 15.9983V21.0004" stroke="black" stroke-width="1.5" stroke-linecap="round" stroke-linejoin="round"/>
<path d="M22.547 17.453C23.9531 18.8596 23.9529 21.1397 22.5464 22.546C21.14 23.9523 18.8599 23.9523 17.4534 22.546C16.047 21.1397 16.0467 18.8596 17.4529 17.453C18.1283 16.7773 19.0446 16.3977 19.9999 16.3977C20.9553 16.3977 21.8716 16.7773 22.547 17.453" stroke="black" stroke-width="1.5" stroke-linecap="round" stroke-linejoin="round"/>
<path d="M25.002 27.4969H30.004" stroke="black" stroke-width="1.5" stroke-linecap="round" stroke-linejoin="round"/>
<path d="M27.5031 29.9979V24.9958" stroke="black" stroke-width="1.5" stroke-linecap="round" stroke-linejoin="round"/>
</svg>
