<svg width="27" height="27" viewBox="0 0 27 27" fill="none" xmlns="http://www.w3.org/2000/svg">
<g clip-path="url(#clip0_1084_1274)">
<path d="M22.7 15.9L17 21.6H14.7V19.3L20.4 13.6L22.7 15.9ZM26.1 15.1C26.1 15.4 25.8 15.7 25.5 16L23 18.5L22.1 17.6L24.7 15L24.1 14.4L23.4 15.1L21.1 12.8L23.3 10.7C23.5 10.5 23.9 10.5 24.2 10.7L25.6 12.1C25.8 12.3 25.8 12.7 25.6 13C25.4 13.2 25.2 13.4 25.2 13.6C25.2 13.8 25.4 14 25.6 14.2C25.9 14.5 26.2 14.8 26.1 15.1ZM6 23V7H13V12H18V13.5L20 11.5V11L14 5H6C4.9 5 4 5.9 4 7V23C4 24.1 4.9 25 6 25H18C19.1 25 20 24.1 20 23H6ZM14 20.1C13.8 20.1 13.6 20.2 13.5 20.2L13 18H11.5L9.4 19.7L10 17H8.5L7.5 22H9L11.9 19.4L12.5 21.7H13.5L14 21.6V20.1Z" fill="#8A8A8E"/>
</g>
<defs>
<clipPath id="clip0_1084_1274">
<rect width="26.5" height="26.5" fill="white"/>
</clipPath>
</defs>
</svg>
